<?xml version="1.0" encoding="UTF-8"?><svg id="Layer_2" xmlns="http://www.w3.org/2000/svg" viewBox="0 0 32 32"><defs><style>.cls-1{fill:#44d62c;}</style></defs><path class="cls-1" d="m28.7269,15.2954c0-6.3415-4.4916-11.9188-10.6799-13.2615-.0594-.0129-.1198-.0218-.1794-.0338v1.1042c5.6683,1.2549,9.7778,6.3724,9.7778,12.1912,0,5.955-4.1911,10.9468-9.7778,12.1884v1.1088c6.1881-1.2594,10.8594-6.7428,10.8594-13.2973Z"/><path class="cls-1" d="m14.2212,6.0081c-.2036,0-.3687.1651-.3687.3687v18.2795c0,.2036.1651.3687.3687.3687s.3687-.1651.3687-.3687V6.3768c0-.2036-.1651-.3687-.3687-.3687Z"/><path class="cls-1" d="m12.0836,21.9062c-.2036,0-.3687.1651-.3687.3687v7.3564c0,.2036.1651.3687.3687.3687s.3687-.1651.3687-.3687v-7.3564c0-.2036-.1651-.3687-.3687-.3687Z"/><path class="cls-1" d="m12.0836,4.4551c-.2036,0-.3687.1651-.3687.3687v15.1624c0,.2036.1651.3687.3687.3687s.3687-.1651.3687-.3687V4.8238c0-.2036-.1651-.3687-.3687-.3687Z"/><path class="cls-1" d="m9.9459,24.7763c-.2036,0-.3687.1651-.3687.3687v1.2811c0,.2036.1651.3687.3687.3687s.3687-.1651.3687-.3687v-1.2811c0-.2036-.1651-.3687-.3687-.3687Z"/><path class="cls-1" d="m9.9459,7.2342c-.2036,0-.3687.1651-.3687.3687v15.4075c0,.2036.1651.3687.3687.3687s.3687-.1651.3687-.3687V7.6029c0-.2036-.1651-.3687-.3687-.3687Z"/><path class="cls-1" d="m9.9459,2.6659c-.2036,0-.3687.1651-.3687.3687v2.2388c0,.2036.1651.3687.3687.3687s.3687-.1651.3687-.3687v-2.2388c0-.2036-.1651-.3687-.3687-.3687Z"/><path class="cls-1" d="m7.8356,22.7235c-.2036,0-.3687.1651-.3687.3687v1.5641c0,.2036.1651.3687.3687.3687s.3687-.1651.3687-.3687v-1.5641c0-.2036-.1651-.3687-.3687-.3687Z"/><path class="cls-1" d="m7.8356,8.8281c-.2036,0-.3687.1651-.3687.3687v12.0155c0,.2036.1651.3687.3687.3687s.3687-.1651.3687-.3687v-12.0155c0-.2036-.1651-.3687-.3687-.3687Z"/><path class="cls-1" d="m5.6977,25.4981c-.2036,0-.3687.1651-.3687.3687v1.4349c0,.2036.1651.3687.3687.3687s.3687-.1651.3687-.3687v-1.4349c0-.2036-.1651-.3687-.3687-.3687Z"/><path class="cls-1" d="m5.6977,6.3761c-.2036,0-.3687.1651-.3687.3687v16.8141c0,.2036.1651.3687.3687.3687s.3687-.1651.3687-.3687V6.7448c0-.2036-.1651-.3687-.3687-.3687Z"/><path class="cls-1" d="m3.6418,12.1101c-.2036,0-.3687.1651-.3687.3687v6.1997c0,.2036.1651.3687.3687.3687s.3687-.1651.3687-.3687v-6.1997c0-.2036-.1651-.3687-.3687-.3687Z"/><path class="cls-1" d="m17.8676,6.5747v6.1466c0,.3196-.259.5782-.5781.5782h-.0113c-.3191,0-.5776-.2585-.5776-.5782V2.6169c0-.2036-.1651-.3687-.3687-.3687s-.3687.1651-.3687.3687v25.6248c0,.2036.1651.3687.3687.3687s.3687-.1651.3687-.3687v-9.03c0-.3191.2585-.5777.5776-.5777h.0113c.3191,0,.5781.2585.5781.5777v5.0125c3.9853-1.041,6.7942-4.6216,6.7942-8.827,0-4.1744-2.8197-7.7781-6.7942-8.8226Z"/></svg>