<svg xmlns="http://www.w3.org/2000/svg" viewBox="0 0 32 32"><defs><style>.cls-1{fill:#44d62c;}</style></defs><title>icon</title><g id="Layer_2" data-name="Layer 2"><path class="cls-1" d="M16,30A14,14,0,1,1,30,16,14,14,0,0,1,16,30ZM16,3.06A12.94,12.94,0,1,0,28.94,16,12.95,12.95,0,0,0,16,3.06Z"/><path class="cls-1" d="M16,12.55a3.23,3.23,0,1,1,3.23-3.23A3.23,3.23,0,0,1,16,12.55Zm0-5.41a2.18,2.18,0,1,0,2.18,2.18A2.19,2.19,0,0,0,16,7.14Z"/><path class="cls-1" d="M16,25.91a3.23,3.23,0,1,1,3.23-3.23A3.23,3.23,0,0,1,16,25.91Zm0-5.41a2.18,2.18,0,1,0,2.18,2.18A2.19,2.19,0,0,0,16,20.5Z"/><path class="cls-1" d="M22.68,19.23A3.23,3.23,0,1,1,25.91,16,3.23,3.23,0,0,1,22.68,19.23Zm0-5.41A2.18,2.18,0,1,0,24.86,16,2.19,2.19,0,0,0,22.68,13.82Z"/><path class="cls-1" d="M9.32,19.23A3.23,3.23,0,1,1,12.55,16,3.23,3.23,0,0,1,9.32,19.23Zm0-5.41A2.18,2.18,0,1,0,11.5,16,2.19,2.19,0,0,0,9.32,13.82Z"/><path class="cls-1" d="M18.7,23.11a.52.52,0,0,1-.29-.09.54.54,0,0,1-.24-.42,2.17,2.17,0,0,0-4.34,0,.52.52,0,0,1-.25.42.54.54,0,0,1-.48,0A7.78,7.78,0,0,1,9,18.9a.54.54,0,0,1,0-.48.52.52,0,0,1,.42-.25,2.17,2.17,0,0,0,0-4.34A.56.56,0,0,1,9,13.59a.53.53,0,0,1,0-.49,7.71,7.71,0,0,1,4.13-4.21.53.53,0,0,1,.5,0,.54.54,0,0,1,.24.43,2.18,2.18,0,0,0,4.35,0,.54.54,0,0,1,.23-.44.57.57,0,0,1,.49-.05,7.67,7.67,0,0,1,4.27,4.26.5.5,0,0,1-.05.49.52.52,0,0,1-.44.23,2.18,2.18,0,0,0,0,4.36.54.54,0,0,1,.44.23.56.56,0,0,1,.05.5,7.75,7.75,0,0,1-4.24,4.16A.48.48,0,0,1,18.7,23.11ZM16,19.45a3.21,3.21,0,0,1,3.11,2.36,6.64,6.64,0,0,0,2.75-2.68,3.24,3.24,0,0,1,0-6.27,6.65,6.65,0,0,0-2.76-2.75,3.24,3.24,0,0,1-6.26.06,6.64,6.64,0,0,0-2.66,2.72,3.24,3.24,0,0,1,0,6.2,6.63,6.63,0,0,0,2.64,2.66A3.23,3.23,0,0,1,16,19.45Z"/></g></svg>