<?xml version="1.0" encoding="UTF-8"?><svg id="Layer_2" xmlns="http://www.w3.org/2000/svg" viewBox="0 0 32 32"><defs><style>.cls-1{fill:#44d62c;}</style></defs><path class="cls-1" d="m29.0009,18.1697c-.0818.0887-.2031.1277-.3234.103-.0527-.0155-.1006-.0444-.138-.0833l-.3865-.3973-.0059.0532c-.3392,3.0109-1.7585,5.7943-3.9956,7.8374-2.2372,2.0432-5.1374,3.2044-8.1658,3.2697-3.1171-.0624-6.0829-1.2756-8.3501-3.4156-2.251-2.1248-3.6293-4.9885-3.8862-8.0711l.0202.0202c.1242.137.3352.1474.4723.0242.0084-.0076.0168-.0158.0222-.0222.142-.1237.173-.3303.0739-.4913-.0197-.0313-.0454-.0572-.0735-.0744l-.8465-.8065c-.1237-.1363-.3352-.1472-.4718-.0239-.0089.0076-.0168.0158-.0246.0244l-.8174.9369c-.139.1518-.139.3808,0,.5327.0597.0661.142.1053.2312.1097.0882.0035.175-.0259.2421-.0863.0074-.0076.0153-.0155.0232-.0239l.0804-.0934c.2692,3.3602,1.7659,6.4827,4.2175,8.7985,2.4669,2.3298,5.6939,3.6471,9.0871,3.7097,3.267-.07,6.3999-1.316,8.8224-3.509,2.422-2.1928,3.9729-5.1867,4.3663-8.4305l.0089-.0725-.1814.1812-.001.0005Z"/><path class="cls-1" d="m29.909,14.9226c-.0123-.0155-.0271-.0301-.0439-.0446-.0597-.0656-.1415-.1043-.2302-.1087-.0059-.0002-.0118-.0005-.0173-.0005-.0828,0-.1622.0303-.2248.0868-.0074.0076-.0153.0155-.0222.0232l-.1006.107c-.4895-7.2717-6.3141-12.9598-13.2854-12.9598-3.3976.0658-6.6267,1.3897-9.0921,3.7277-2.4659,2.338-3.9601,5.4921-4.2066,8.8813l-.0054.0727.3485-.3828c.0818-.0892.2041-.1279.3214-.1035.0488.019.0927.0473.1306.0838l.2376.2497.0049-.0555c.5931-6.3708,5.8645-11.2614,12.261-11.3761,3.1837.0744,6.1933,1.3397,8.4739,3.5628,2.2692,2.212,3.6091,5.1694,3.7758,8.3324l-.036-.0224c-.0597-.0646-.1405-.1025-.2287-.1072-.0059-.0002-.0118-.0002-.0173-.0002-.0833,0-.1622.0303-.2238.086-.0084.0076-.0168.0155-.0212.0212-.1597.1269-.1923.3567-.0749.5221.0197.0313.0454.0572.0735.0744l.8465.8065c.0661.073.1568.1099.248.1099.0804,0,.1607-.0283.2248-.0863.0079-.0074.0158-.0155.0237-.0242l.8149-.9347c.0784-.0663.1262-.159.1351-.2613.0084-.1023-.0232-.2016-.0897-.2798Z"/><path class="cls-1" d="m21.7711,10.1851c-1.6029-1.604-3.7355-2.487-6.0043-2.487s-4.4014.883-6.0043,2.487l-.0585.0579.568.5675.0574-.0574c1.4521-1.4527,3.3835-2.2525,5.4374-2.2525s3.9853.7998,5.4374,2.2525l.0574.0574.568-.5675-.0585-.0579Z"/><path class="cls-1" d="m15.8208,9.5906c-1.7097,0-3.3149.6636-4.5184,1.8689l-.0585.0579.568.5675.0573-.0574c2.1822-2.1788,5.7265-2.1777,7.9042,0l.0574.0574.568-.5675-.0585-.0579c-1.2047-1.2052-2.8098-1.8695-4.5195-1.8689Z"/><path class="cls-1" d="m12.4576,12.8807l-.0585.0579.568.5675.0574-.0574c.7604-.7609,1.7727-1.1799,2.8514-1.1799s2.091.419,2.8526,1.1799l.0574.0574.568-.5675-.0585-.0579c-1.8852-1.8852-4.9526-1.8841-6.8378,0Z"/><path class="cls-1" d="m10.915,23.0388c-.4559-.3208-.882-.688-1.2652-1.0914-1.5009-1.5771-2.3281-3.6445-2.3281-5.822,0-1.1408.2238-2.2472.6642-3.2874l.7951.3368c-.3952.9331-.5951,1.9258-.5951,2.9506,0,1.955.7415,3.8111,2.09,5.2269.344.3618.726.6915,1.1367.9796l-.4975.707Z"/><path class="cls-1" d="m21.3773,21.2116c-.0219.0241-.0374.0526-.0596.0764-.3761.4047-.7975.7695-1.2533,1.0843l.4904.7106c.507-.3499.9772-.7558,1.3961-1.2069.0529-.0568.0909-.1242.1421-.1823l-.7157-.482Z"/><path class="cls-1" d="m22.7602,19.0551c-.0062.0148-.016.0276-.0223.0424l.7225.4765c.0286-.0637.0702-.12.0973-.1845.4344-1.0355.6546-2.1335.6546-3.2642,0-1.2063-.2499-2.3727-.7427-3.466l-.7879.3547c.4428.9813.6665,2.0282.6665,3.1113,0,1.0153-.1976,2.0008-.588,2.9298Z"/><path class="cls-1" d="m24.2119,22.1254l1.0553.1372-.5698-.8442-8.3367-5.994h0c-.3838-.2326-.8834-.1101-1.1161.2737-.1769.2918-.1526.6631.0608.9293.0431.0417.0889.0805.1372.1161h0l.0844.0528h0l8.6849,5.3291Z"/></svg>