<svg xmlns="http://www.w3.org/2000/svg" viewBox="0 0 32 32"><defs><style>.cls-1{fill:#44d62c;}</style></defs><title>icon</title><g id="Layer_2" data-name="Layer 2"><path class="cls-1" d="M9.62,20.08h.94v4.85h-1V21.17l-1.06.65L8,21.09Z"/><path class="cls-1" d="M15.07,22.57c0,1.76-.68,2.43-1.9,2.43s-1.9-.67-1.9-2.43S12,20,13.17,20,15.07,20.82,15.07,22.57Zm-2.75,0c0,1.14.26,1.59.86,1.59s.84-.45.84-1.59-.25-1.73-.84-1.73S12.32,21.37,12.32,22.57Z"/><path class="cls-1" d="M19.54,22.57c0,1.76-.69,2.43-1.91,2.43s-1.9-.67-1.9-2.43S16.41,20,17.63,20,19.54,20.82,19.54,22.57Zm-2.75,0c0,1.14.26,1.59.85,1.59s.84-.45.84-1.59-.25-1.73-.84-1.73S16.79,21.37,16.79,22.57Z"/><path class="cls-1" d="M24,22.57c0,1.76-.68,2.43-1.9,2.43s-1.91-.67-1.91-2.43S20.88,20,22.1,20,24,20.82,24,22.57Zm-2.75,0c0,1.14.26,1.59.85,1.59s.84-.45.84-1.59-.24-1.73-.84-1.73S21.25,21.37,21.25,22.57Z"/><path class="cls-1" d="M16,2.93A13.07,13.07,0,1,1,2.93,16,13.09,13.09,0,0,1,16,2.93M16,2A14,14,0,1,0,30,16,14,14,0,0,0,16,2Z"/><path class="cls-1" d="M18.16,16.28c-3.49,2.26-4.27,2.46-4.45,2.19s.33-.9,3.82-3.16,8.66-5.29,8.83-5S21.65,14,18.16,16.28Z"/><path class="cls-1" d="M18,16.5A1.5,1.5,0,1,1,16.5,15,1.5,1.5,0,0,1,18,16.5Z"/><rect class="cls-1" x="2" y="16" width="3" height="1" rx="0.5"/><rect class="cls-1" x="15" y="3" width="3" height="1" rx="0.5" transform="translate(20 -13) rotate(90)"/><rect class="cls-1" x="27" y="16" width="3" height="1" rx="0.5"/><rect class="cls-1" x="5.31" y="7.01" width="3" height="1" rx="0.5" transform="translate(7.31 -2.61) rotate(45)"/><rect class="cls-1" x="23.69" y="7.01" width="3" height="1" rx="0.5" transform="translate(48.32 -4.99) rotate(135)"/></g></svg>