<?xml version="1.0" encoding="UTF-8"?><svg id="Layer_2" xmlns="http://www.w3.org/2000/svg" viewBox="0 0 32 32"><defs><style>.cls-1{fill:#44d62c;stroke-width:0px;}</style></defs><path class="cls-1" d="m15.9891,30c-7.7136,0-13.9891-6.2755-13.9891-13.9891S8.2755,2.0215,15.9891,2.0215s13.9891,6.2755,13.9891,13.9894-6.2755,13.9891-13.9891,13.9891Zm0-27.1795c-7.2731,0-13.19,5.9173-13.19,13.1904s5.9169,13.19,13.19,13.19,13.19-5.9169,13.19-13.19S23.2622,2.8205,15.9891,2.8205Z"/><rect class="cls-1" x="13.7952" y="13.9553" width="8.3608" height=".844" transform="translate(-1.5202 26.6142) rotate(-70.7688)"/><path class="cls-1" d="m16.6032,18.7466c-.1263,0-.2503-.0566-.3325-.1618l-1.5707-2.0073c-.1437-.1836-.1113-.4488.0723-.5923.1836-.1439.449-.1113.5923.0723l1.3527,1.7286,2.7016-1.4379c.2059-.1098.4612-.0318.5708.1742.1094.2057.0315.4612-.1744.5706l-3.014,1.6042c-.0628.0337-.1308.0495-.198.0495Z"/><polygon class="cls-1" points="14.3782 16.0154 13.5772 15.7494 14.9712 11.5478 12.9259 11.5478 14.7579 5.4962 15.5656 5.7404 14.0633 10.7041 16.1405 10.7041 14.3782 16.0154"/><path class="cls-1" d="m16.9486,8.4296c-.1285,0-.2555-.0584-.3383-.1693l-1.5555-2.0804-3.115,1.9208c-.1986.1218-.4586.0599-.5807-.1379-.1223-.1982-.0605-.4582.1379-.5807l3.4434-2.1231c.1862-.1139.4288-.0686.5593.1068l1.7865,2.3895c.1396.1866.1013.4511-.0852.5904-.0759.0566-.1645.0839-.2523.0839Z"/><path class="cls-1" d="m16.3535,26.825c-.7656,0-1.3019-.2488-1.3392-.2664-.0142-.0067-.0283-.0146-.0418-.0229-.1566-.0978-3.8491-2.4026-4.726-3.0241-.9505-.674-.5801-1.8477-.2514-2.3741l1.614-2.7225c.0618-.1045.1654-.1768.2844-.1997.1189-.0225.2418.0071.3377.0817,1.3017,1.0119,3.7466,2.2763,4.395,2.6053,1.5664-.5949,4.1514-2.128,4.1782-2.1441.112-.0667.2488-.0787.37-.03.1214.0476.2139.1487.2506.2735.0324.1101.7942,2.7053.8954,3.3373.1272.7935-.4765,1.4671-.5459,1.5413-.0189.0206-.0397.039-.0622.0551-.0843.0603-2.0789,1.4918-3.5175,2.3659-.6641.4031-1.3084.5238-1.8414.5238Zm-.9583-1.0205c.1525.0648,1.212.4728,2.3616-.2248,1.3032-.7916,3.1373-2.0969,3.4246-2.3022.1201-.1427.3552-.4975.3059-.8051-.0629-.3923-.4601-1.8077-.7214-2.7151-.8791.505-2.7859,1.5656-4.0263,2.0021-.1073.0371-.2255.0303-.3273-.0202-.1175-.0581-2.6871-1.336-4.3155-2.4918l-1.3806,2.3288c-.0257.042-.5211.8643.0185,1.2468.8207.5818,4.332,2.7765,4.6604,2.9814Z"/><path class="cls-1" d="m15.9893,26.8026c-.017,0-.0343-.0011-.0515-.0034-.2313-.0281-.3962-.2386-.3679-.4698l.6109-5.0191c.0281-.2312.2403-.3967.4698-.3679.2313.0281.3962.2386.3679.4698l-.6109,5.0191c-.026.2139-.2079.3713-.4183.3713Z"/><path class="cls-1" d="m11.9726,19.0523c-.151,0-.2969-.0813-.3728-.2237-.1096-.2057-.0318-.4612.1738-.571l2.0055-1.0689c.2064-.1101.4614-.0315.571.1738.1096.2057.0318.4612-.1738.571l-2.0055,1.0689c-.0633.0337-.1313.0498-.1982.0498Z"/></svg>