<?xml version="1.0" encoding="UTF-8"?><svg id="Layer_2" xmlns="http://www.w3.org/2000/svg" viewBox="0 0 32 32"><defs><style>.cls-1{stroke-linecap:round;stroke-linejoin:round;}.cls-1,.cls-2{fill:none;stroke:#44d62c;stroke-width:.7996px;}.cls-2{stroke-miterlimit:10;}.cls-3{fill:#44d62c;stroke-width:0px;}</style></defs><path class="cls-3" d="m16,30c-7.7196,0-14-6.2803-14-13.9998S8.2804,2,16,2s14,6.2803,14,14.0002-6.2804,13.9998-14,13.9998Zm0-27.2004c-7.2788,0-13.2004,5.9219-13.2004,13.2006s5.9216,13.2002,13.2004,13.2002,13.2004-5.9215,13.2004-13.2002S23.2788,2.7996,16,2.7996Z"/><line class="cls-1" x1="13.1325" y1="12.757" x2="7.3533" y2="12.757"/><line class="cls-1" x1="12.8183" y1="19.2202" x2="8.4175" y2="19.2202"/><line class="cls-1" x1="9.3247" y1="14.5398" x2="12.3264" y2="14.5398"/><line class="cls-1" x1="7.6669" y1="14.5398" x2="5.7651" y2="14.5398"/><line class="cls-1" x1="8.5571" y1="17.8249" x2="6.9468" y2="17.8249"/><line class="cls-1" x1="12.7851" y1="17.8249" x2="10.145" y2="17.8249"/><path class="cls-1" d="m12.7827,17.8175l.3725.8945c.0715.1436.0619.3732-.0212.5103l-.7867,1.2969c-.0832.1371-.0585.3421.055.4555l1.0266,1.0266c.1134.1134.3201.141.4593.0614l1.3382-.7658c.1392-.0797.3709-.0871.5149-.0165l.8771.3598c.1519.0514.3074.2209.3456.3767l.3649,1.4902c.0381.1558.2006.2832.361.2832h1.4518c.1604,0,.3261-.1266.3682-.2814l.409-1.5033c.0421-.1548.2006-.3241.3523-.3762l.8588-.3567c.1438-.0711.3736-.0612.5107.0219l1.3236.8029c.1371.0832.3421.0585.4555-.055l1.0266-1.0266c.1134-.1134.141-.3201.0614-.4593l-.7768-1.3575c-.0797-.1392-.0868-.3708-.0158-.5146l.3543-.8549c.0521-.1517.2221-.307.3779-.3452l1.5049-.3685c.1558-.0381.2832-.2006.2832-.361v-1.4518c0-.1604-.1266-.326-.2814-.3681l-1.5015-.4085c-.1548-.0421-.3235-.2008-.375-.3527l-.3557-.8669c-.0705-.144-.0602-.3741.023-.5112l.7977-1.3149c.0832-.1371.0585-.3421-.055-.4555l-1.0266-1.0266c-.1134-.1134-.3201-.141-.4593-.0614l-1.3361.7646c-.1392.0797-.3705.0863-.514.0147l-.884-.3692c-.1516-.0523-.3069-.2225-.345-.3783l-.3615-1.4762c-.0381-.1558-.2006-.2832-.361-.2832h-1.4518c-.1604,0-.3261.1266-.3682.2814l-.3997,1.4691c-.0421.1548-.2009.3234-.3528.3747l-.903.3713c-.1439.0709-.3738.0608-.5109-.0223l-1.2879-.7812c-.1371-.0832-.3421-.0585-.4555.055l-1.0266,1.0266c-.1134.1134-.141.3201-.0614.4593l.7534,1.3165"/><circle class="cls-2" cx="18.4447" cy="16" r="3.6185"/></svg>