<svg xmlns="http://www.w3.org/2000/svg" viewBox="0 0 32 32">
  <defs>
    <style>
      .cls-1 {
        fill: #44d604;
      }
    </style>
  </defs>
  <title>ic</title>
  <g id="Layer_2" data-name="Layer 2">
    <g>
      <path class="cls-1" d="M16,30A14,14,0,1,1,30,16,14,14,0,0,1,16,30ZM16,2.9A13.1,13.1,0,1,0,29.1,16,13.11,13.11,0,0,0,16,2.9Z"/>
      <g>
        <g>
          <g>
            <path class="cls-1" d="M24,14.51h-.9V9.9a1,1,0,0,0-1-1H17.49V8H22.1A1.94,1.94,0,0,1,24,9.9Z"/>
            <path class="cls-1" d="M8.86,14.51H8V9.9A1.94,1.94,0,0,1,9.9,8h4.61v.9H9.9a1,1,0,0,0-1,1Z"/>
          </g>
          <g>
            <path class="cls-1" d="M14.51,24H9.9A1.94,1.94,0,0,1,8,22.1V17.49h.9V22.1a1,1,0,0,0,1,1h4.61Z"/>
            <path class="cls-1" d="M22.1,24H17.49v-.9H22.1a1,1,0,0,0,1-1V17.49H24V22.1A1.94,1.94,0,0,1,22.1,24Z"/>
          </g>
        </g>
        <polygon class="cls-1" points="15.62 14.59 16 9.68 16.38 14.59 18.13 12.32 17.03 14.97 20.46 13.42 17.41 15.62 25.66 16 17.41 16.38 20.46 18.58 17.03 17.03 18.13 19.68 16.38 17.41 16 22.32 15.62 17.41 13.87 19.68 14.97 17.03 11.54 18.58 14.59 16.38 6.34 16 14.59 15.62 11.54 13.42 14.97 14.97 13.87 12.32 15.62 14.59"/>
      </g>
    </g>
  </g>
</svg>
