<?xml version="1.0" encoding="UTF-8"?><svg id="Layer_2" xmlns="http://www.w3.org/2000/svg" viewBox="0 0 32 32"><defs><style>.cls-1{fill:#44d62c;}</style></defs><rect class="cls-1" x="2.8527" y="15.717" width="12.6716" height=".6987"/><path class="cls-1" d="m16.8514,21.0975c-2.7744,0-5.0313-2.2568-5.0313-5.0311s2.257-5.0316,5.0313-5.0316c1.3593,0,2.6402.5467,3.5836,1.5067h.9802c-.0374-.0485-.0714-.0992-.1105-.1465-1.1014-1.3342-2.7245-2.0998-4.4533-2.0998-3.1822,0-5.7709,2.589-5.7709,5.7712s2.5887,5.7707,5.7709,5.7707c1.8486,0,3.4927-.877,4.5497-2.233h-.9769c-.9125.9213-2.1768,1.4935-3.5728,1.4935Z"/><path class="cls-1" d="m17.6451,16.9967v1.4142h-.9292v-4.6633h1.684c1.0789,0,1.6307.5246,1.6307,1.5899s-.5518,1.6592-1.6307,1.6592h-.7547Zm0-.7968h.7473c.4653,0,.6954-.2833.6954-.8624,0-.5728-.2301-.7956-.6954-.7956h-.7473v1.658Z"/><path class="cls-1" d="m22.8538,16.7927h-.897v1.6184h-.9292v-4.6646h1.7793c1.0443,0,1.6171.4652,1.6171,1.5095,0,.6347-.2561,1.0591-.6731,1.3227l.6533,1.8324h-1.0183l-.532-1.6184Zm-.047-2.2506h-.85v1.4563h.8636c.4652,0,.6532-.3242.6532-.7275,0-.4393-.2227-.7288-.6668-.7288"/><path class="cls-1" d="m25.3464,16.1334c0-1.5503.459-2.4597,1.9005-2.4597,1.4426,0,1.9004.9094,1.9004,2.4597s-.4578,2.3385-1.9004,2.3385c-1.4415,0-1.9005-.7881-1.9005-2.3385m2.8445,0c0-1.0579-.1893-1.6518-.9441-1.6518s-.9428.5939-.9428,1.6518c0,1.0566.188,1.5355.9428,1.5355s.9441-.4789.9441-1.5355"/><rect class="cls-1" x="16.5022" y="19.5729" width=".6987" height="10.4271"/><rect class="cls-1" x="16.5022" y="2" width=".6987" height="10.4367"/><path class="cls-1" d="m16.8514,27.2027c-6.1782,0-11.2043-5.0264-11.2043-11.2041s5.0261-11.2045,11.2043-11.2045c4.9583,0,9.1718,3.2386,10.6436,7.7106h1.0744c-1.5073-5.0456-6.1887-8.735-11.7179-8.735-6.7432,0-12.2292,5.4858-12.2292,12.229s5.486,12.2286,12.2292,12.2286c5.4751,0,10.1212-3.6167,11.6751-8.5862h-1.0819c-1.5155,4.3946-5.69,7.5617-10.5932,7.5617Z"/></svg>