<?xml version="1.0" encoding="UTF-8"?>
<svg id="Layer_2" data-name="Layer 2" xmlns="http://www.w3.org/2000/svg" viewBox="0 0 32 32">
  <defs>
    <style>
      .cls-1 {
        fill: #44d62c;
        stroke-width: 0px;
      }
    </style>
  </defs>
  <path class="cls-1" d="m24.3425,2.9297c-4.1636,3.7109-8.4894,8.356-12.6878,13.9361,1.6374-.5826,3.294-1.0231,4.9531-1.3215-2.297,4.5461-4.5898,9.3646-6.8326,14.4558,4.9011-7.4118,10.0404-13.5224,14.9416-18.3317-1.7444-.2011-3.5192-.2375-5.3024-.1091,1.6561-3.0187,3.3044-5.8953,4.9282-8.6295Z"/>
  <g>
    <path class="cls-1" d="m3.5892,15.8031c0-6.9972,5.5673-12.6898,12.4108-12.6898,1.8679,0,3.6393.4267,5.2297,1.1856.2829-.2725.565-.5477.8494-.8142-1.8285-.9472-3.893-1.4846-6.0792-1.4846C8.5561,2,2.5,8.1919,2.5,15.8031c0,5.2027,2.8307,9.7408,6.9993,12.0928.1517-.3388.3014-.6774.4547-1.0164-3.7936-2.1735-6.3647-6.3227-6.3647-11.0764Z"/>
    <path class="cls-1" d="m24.4223,5.0272c-.1879.3208-.3761.641-.563.9628,2.7766,2.3291,4.5515,5.8629,4.5515,9.8131,0,6.9972-5.5673,12.6898-12.4108,12.6898-1.21,0-2.3788-.1812-3.4853-.5129-.2206.3159-.4367.6399-.6554.9593,1.3056.4313,2.6965.6668,4.1406.6668,7.4439,0,13.5-6.1919,13.5-13.8031,0-4.3558-1.9857-8.2443-5.0777-10.7758Z"/>
    <path class="cls-1" d="m6.0392,15.8031c0,3.7517,1.9996,7.0274,4.9609,8.7945.1559-.3371.309-.6743.4662-1.0113-2.5927-1.5852-4.3378-4.476-4.3378-7.7832,0-5.0016,3.9796-9.0709,8.8716-9.0709.8504,0,1.6703.1301,2.4495.3595.2845-.299.5712-.5905.8576-.8835-1.0366-.3747-2.1465-.5892-3.307-.5892-5.4924,0-9.9608,4.5686-9.9608,10.1841Z"/>
    <path class="cls-1" d="m10.4619,15.8031c0-3.0041,2.301-5.4624,5.1946-5.6452.3236-.3706.6494-.7354.9758-1.0983-.2083-.0203-.4189-.0327-.6323-.0327-3.6543,0-6.6273,3.0396-6.6273,6.7762,0,2.3993,1.2293,4.5061,3.0741,5.7104.1594-.3348.3163-.6703.4769-1.0047-1.4831-1.0171-2.4618-2.7464-2.4618-4.7058Z"/>
  </g>
</svg>