<?xml version="1.0" encoding="UTF-8"?>
<svg id="Layer_2" data-name="Layer 2" xmlns="http://www.w3.org/2000/svg" viewBox="0 0 32 32">
  <defs>
    <style>
      .cls-1 {
        fill: #44d62c;
      }
    </style>
  </defs>
  <g>
    <path class="cls-1" d="M25.59,17.41h1.03c-.72-1.91-2.19-3.46-4.04-4.29-.06.32-.15.63-.25.94,1.45.69,2.61,1.88,3.26,3.35ZM19.44,26.82c-1.58,0-3.04-.55-4.18-1.46-1.54-1.23-2.53-3.13-2.53-5.25,0-1.59.55-3.04,1.48-4.2-.22-.23-.45-.45-.7-.65-1.08,1.32-1.73,3.01-1.73,4.85,0,.62.08,1.22.22,1.8-.17.03-.35.05-.53.05-1.04,0-2.01-.56-2.53-1.46-.64-1.11-.46-2.51.39-3.43.61.58,1.32,1.06,2.1,1.41.06-.32.15-.63.25-.94-1.49-.71-2.68-1.95-3.32-3.49-.31.07-.61.16-.91.28.09.23.2.46.31.68-1.2.71-2.05,1.84-2.42,3.2-.37,1.38-.19,2.82.53,4.05.95,1.65,2.73,2.68,4.64,2.68.88,0,1.75-.23,2.52-.65.42.65.94,1.23,1.53,1.71,1.32,1.1,3.03,1.76,4.88,1.76,3.11,0,5.8-1.87,7-4.54h-1.06c-1.13,2.13-3.36,3.59-5.94,3.59ZM10.5,24.51c-1.76,0-3.39-.94-4.26-2.46-.65-1.13-.83-2.46-.48-3.72.33-1.24,1.12-2.28,2.22-2.94.29.5.64.96,1.03,1.38-.98,1.06-1.19,2.68-.45,3.95.6,1.03,1.71,1.68,2.91,1.68.21,0,.42-.03.64-.07.17.56.41,1.1.7,1.6-.71.38-1.5.58-2.3.58Z"/>
    <path class="cls-1" d="M19.93,12.47c-.04-2.91-2.42-5.27-5.34-5.27s-5.3,2.36-5.34,5.26c-.78.04-1.52.2-2.22.46-2.93,1.07-5.03,3.88-5.03,7.19,0,1.98.76,3.79,2,5.16.08.09.17.18.26.26.61.61,1.33,1.12,2.12,1.5.16.08.33.15.5.22.87.34,1.81.52,2.79.52h.01c.11,0,.23,0,.34,0,.09,0,.17,0,.26-.02.1,0,.2-.02.31-.03.2-.03.4-.06.6-.1.13-.03.27-.06.4-.1.13-.03.26-.07.39-.11.13-.04.26-.09.39-.13.63-.24,1.23-.56,1.77-.95-.25-.21-.48-.44-.69-.67-1.08.74-2.38,1.16-3.78,1.16-3.7,0-6.71-3.01-6.71-6.71s3.01-6.71,6.71-6.71c2.79,0,5.19,1.71,6.2,4.14.31-.07.62-.16.91-.27-.87-2.17-2.7-3.84-4.96-4.51.39-1.17,1.5-2.01,2.77-2.01s2.37.83,2.76,2c-.86.25-1.66.64-2.38,1.15.25.21.48.43.69.67,1.08-.74,2.38-1.16,3.78-1.16.33,0,.65.03.97.08.1-.3.18-.61.24-.93-.24-.04-.48-.06-.73-.08ZM19.44,12.44c-.58,0-1.13.07-1.67.19-.44-1.35-1.72-2.32-3.18-2.32s-2.75.97-3.19,2.33c-.55-.13-1.13-.19-1.72-.19.06-2.66,2.23-4.81,4.91-4.81s4.85,2.15,4.91,4.81c-.02,0-.03,0-.05,0Z"/>
    <path class="cls-1" d="M17.33,20.11c0-.15,0-.31-.01-.45-.01-.15-.03-.3-.04-.45-.3.1-.61.19-.93.26.02.21.03.42.03.64,0,1.58-.55,3.04-1.48,4.19.22.24.45.45.7.65.23-.29.44-.59.64-.91,0,0,0,0,0,0,.08-.12.15-.24.21-.37,0,0,0,0-.01,0,.23-.42.41-.87.55-1.33h0c.04-.14.08-.27.11-.42h0c.14-.58.22-1.19.22-1.81ZM21.61,8.51c-.15-.34-.32-.67-.51-.99-.06-.11-.13-.21-.2-.32-.14-.2-.29-.4-.44-.59-.16-.19-.32-.37-.49-.55-.17-.17-.36-.34-.55-.49s-.39-.3-.59-.44c-.1-.07-.21-.13-.32-.2-.32-.19-.65-.36-.99-.51-.92-.39-1.93-.6-2.98-.6s-2.07.22-2.98.6c-.34.15-.67.32-.99.51-.11.06-.21.13-.32.2-.2.14-.4.29-.59.44s-.37.32-.55.49c-.17.17-.34.36-.49.55-.16.19-.3.39-.44.59-.07.1-.13.21-.2.32-.19.32-.36.65-.51.99-.39.92-.6,1.93-.6,2.98,0,.16,0,.31.02.46,0,.15.02.3.04.45.3-.11.61-.2.93-.27-.02-.21-.03-.42-.03-.64,0-3.7,3.01-6.71,6.71-6.71s6.71,3.01,6.71,6.71-3.01,6.71-6.71,6.71c-.33,0-.65-.03-.97-.08-.1.3-.18.61-.24.93.4.06.8.1,1.21.1.93,0,1.82-.16,2.64-.47l.23-.09c.1-.05.2-.09.3-.13.06-.03.12-.06.18-.08.5-.24.96-.54,1.39-.88.08-.06.16-.13.24-.2.09-.08.18-.16.26-.24.11-.1.21-.2.31-.3h0c.32-.35.62-.72.88-1.12h0c.08-.12.16-.24.22-.37.08-.14.16-.28.23-.43.13-.27.25-.55.35-.84.07-.19.13-.39.18-.58.05-.19.1-.4.13-.6.02-.1.03-.2.05-.31.02-.13.03-.26.04-.4,0-.05,0-.09,0-.14.01-.16.02-.32.02-.48,0-1.06-.22-2.07-.6-2.98Z"/>
  </g>
  <g>
    <path class="cls-1" d="M19.69,19.14c.38,0,.9.07.91.07h.08s.02-.51.02-.51h-.06s-.57-.13-1.02-.13c-.87,0-1.24.49-1.24,1.63,0,.96.21,1.59,1.26,1.59.37,0,.97-.09,1.01-.1h.06v-1.64h-.99v.57h.37v.59c-.09.01-.25.03-.4.03-.53,0-.66-.21-.66-1.03s.15-1.06.67-1.06Z"/>
    <polygon class="cls-1" points="21.18 21.75 23.19 21.75 23.19 21.19 21.8 21.19 21.8 20.46 22.93 20.46 22.93 19.91 21.8 19.91 21.8 19.18 23.19 19.18 23.19 18.61 21.18 18.61 21.18 21.75"/>
    <polygon class="cls-1" points="25.37 21.03 24.52 18.61 23.56 18.61 23.56 21.75 24.18 21.75 24.18 19.34 25.05 21.75 25.99 21.75 25.99 18.61 25.37 18.61 25.37 21.03"/>
    <rect class="cls-1" x="26.49" y="20.23" width="1.44" height=".57"/>
    <path class="cls-1" d="M28.8,21.19l.5-.51c.43-.44.64-.75.64-1.21,0-.59-.34-.9-.99-.9-.43,0-.85.12-.87.13l-.05.02.04.52.08-.02s.4-.08.69-.08c.34,0,.47.11.47.39,0,.26-.19.52-.56.92l-.73.79v.51h1.98v-.56h-1.2Z"/>
  </g>
</svg>