<?xml version="1.0" encoding="UTF-8"?>
<svg id="Layer_2" data-name="Layer 2" xmlns="http://www.w3.org/2000/svg" viewBox="0 0 32 32">
  <defs>
    <style>
      .cls-1 {
        fill: #44d62c;
      }
    </style>
  </defs>
  <g>
    <path class="cls-1" d="M23.04,3.86c-3.95,3.45-8.06,7.76-12.05,12.94,1.55-.54,3.13-.95,4.7-1.23-2.18,4.22-4.36,8.7-6.49,13.42,4.65-6.88,9.53-12.56,14.19-17.02-1.66-.19-3.34-.22-5.03-.1,1.57-2.8,3.14-5.47,4.68-8.01Z"/>
    <g>
      <path class="cls-1" d="M3.33,15.82c0-6.5,5.29-11.78,11.78-11.78,1.77,0,3.46.4,4.97,1.1.27-.25.54-.51.81-.76-1.74-.88-3.7-1.38-5.77-1.38-7.07,0-12.82,5.75-12.82,12.82,0,4.83,2.69,9.05,6.65,11.23.14-.31.29-.63.43-.94-3.6-2.02-6.04-5.87-6.04-10.29Z"/>
      <path class="cls-1" d="M23.52,24.07h1.4c-2.35,2.79-5.87,4.56-9.8,4.56-1.37,0-2.69-.22-3.93-.62.21-.3.41-.6.62-.89,1.05.31,2.16.47,3.31.47,3.29,0,6.26-1.35,8.4-3.53Z"/>
      <path class="cls-1" d="M27.93,15.82c0,.66-.05,1.3-.15,1.93h-1.05c.11-.63.16-1.27.16-1.93,0-3.67-1.69-6.95-4.32-9.11.18-.3.36-.6.54-.9,2.94,2.35,4.82,5.96,4.82,10.01Z"/>
      <path class="cls-1" d="M5.66,15.82c0,3.48,1.9,6.53,4.71,8.17.15-.31.29-.63.44-.94-2.46-1.47-4.12-4.16-4.12-7.23,0-4.64,3.78-8.42,8.42-8.42.81,0,1.59.12,2.33.33.27-.28.54-.55.81-.82-.98-.35-2.04-.55-3.14-.55-5.21,0-9.46,4.24-9.46,9.46Z"/>
      <path class="cls-1" d="M9.86,15.82c0-2.79,2.18-5.07,4.93-5.24.31-.34.62-.68.93-1.02-.2-.02-.4-.03-.6-.03-3.47,0-6.29,2.82-6.29,6.29,0,2.23,1.17,4.18,2.92,5.3.15-.31.3-.62.45-.93-1.41-.94-2.34-2.55-2.34-4.37Z"/>
    </g>
  </g>
  <g>
    <path class="cls-1" d="M18.51,19.62c.42,0,.98.07.99.07h.08s.03-.55.03-.55h-.06s-.62-.14-1.11-.14c-.94,0-1.35.53-1.35,1.77,0,1.04.23,1.73,1.37,1.73.4,0,1.05-.1,1.09-.11h.06v-1.78h-1.07v.61h.4v.64c-.09.01-.27.03-.44.03-.57,0-.72-.23-.72-1.12s.16-1.16.73-1.16Z"/>
    <polygon class="cls-1" points="20.12 22.46 22.31 22.46 22.31 21.85 20.8 21.85 20.8 21.06 22.03 21.06 22.03 20.46 20.8 20.46 20.8 19.67 22.31 19.67 22.31 19.06 20.12 19.06 20.12 22.46"/>
    <polygon class="cls-1" points="24.67 21.68 23.75 19.06 22.71 19.06 22.71 22.46 23.39 22.46 23.39 19.85 24.32 22.46 25.35 22.46 25.35 19.06 24.67 19.06 24.67 21.68"/>
    <rect class="cls-1" x="25.89" y="20.81" width="1.56" height=".62"/>
    <path class="cls-1" d="M28.4,21.85l.54-.56c.46-.48.7-.81.7-1.31,0-.64-.37-.98-1.08-.98-.47,0-.92.13-.94.14l-.06.02.04.56.08-.02s.43-.08.75-.08c.36,0,.51.12.51.43,0,.29-.21.56-.61,1l-.79.85v.55h2.15v-.61h-1.3Z"/>
  </g>
</svg>