<svg xmlns="http://www.w3.org/2000/svg" viewBox="0 0 32 32">
  <defs>
    <style>
      .cls-1 {
        fill: #44d62c;
      }
    </style>
  </defs>
  <title>icon library pixel v02</title>
  <g id="Layer_2" data-name="Layer 2">
    <g>
      <path class="cls-1" d="M16,30A14,14,0,1,1,30,16,14,14,0,0,1,16,30ZM16,3.06A12.94,12.94,0,1,0,28.94,16,12.95,12.95,0,0,0,16,3.06Z"/>
      <g>
        <g>
          <path class="cls-1" d="M11.58,10.09a.53.53,0,0,1-.53-.53V8.05a.53.53,0,0,1,1.06,0V9.56A.53.53,0,0,1,11.58,10.09Z"/>
          <path class="cls-1" d="M9.47,12.2H8a.53.53,0,0,1,0-1H9.47a.53.53,0,1,1,0,1Z"/>
          <path class="cls-1" d="M10.08,10.79a.52.52,0,0,1-.38-.16L8.28,9.21a.53.53,0,0,1,0-.75.54.54,0,0,1,.75,0l1.42,1.43a.51.51,0,0,1,0,.74A.5.5,0,0,1,10.08,10.79Z"/>
        </g>
        <g>
          <path class="cls-1" d="M15.91,25.49c-.05,0-4.86-.26-4.86-5.16a21.27,21.27,0,0,1,.28-3.65,11.66,11.66,0,0,0-.12-4.55h0C11,10.9,15,9.74,15,9.73l.12,0h.11a.53.53,0,0,1,.53.53v.1h.44v-.1a.53.53,0,0,1,.53-.53h.11l.12,0c.05,0,4,1.17,3.81,2.4a11.66,11.66,0,0,0-.12,4.55A21.27,21.27,0,0,1,21,20.33c0,4.9-4.81,5.16-4.88,5.16ZM17.2,10.88a1,1,0,0,1-.9.52h-.6a1,1,0,0,1-.9-.52,10,10,0,0,0-2.52,1.25,12.35,12.35,0,0,1,.09,4.72,20.19,20.19,0,0,0-.26,3.48,4,4,0,0,0,3.82,4.11H16a4,4,0,0,0,3.85-4.11,20.19,20.19,0,0,0-.26-3.48,12.36,12.36,0,0,1,.09-4.72A10,10,0,0,0,17.2,10.88Zm-5.48,1.17h0Z"/>
          <path class="cls-1" d="M16,15.54a.53.53,0,0,0,.53-.53v-1.7a.53.53,0,0,0-1.06,0V15A.53.53,0,0,0,16,15.54Z"/>
          <g>
            <path class="cls-1" d="M20.42,10.09A.53.53,0,0,0,21,9.56V8.05a.53.53,0,0,0-1.06,0V9.56A.53.53,0,0,0,20.42,10.09Z"/>
            <path class="cls-1" d="M22.53,12.2H24a.53.53,0,0,0,0-1H22.53a.53.53,0,1,0,0,1Z"/>
            <path class="cls-1" d="M21.92,10.79a.52.52,0,0,0,.38-.16l1.42-1.42a.53.53,0,0,0,0-.75.54.54,0,0,0-.75,0L21.55,9.89a.51.51,0,0,0,0,.74A.5.5,0,0,0,21.92,10.79Z"/>
          </g>
        </g>
      </g>
    </g>
  </g>
</svg>
